<?xml version="1.0" encoding="utf-8"?>
<!-- Generator: Adobe Illustrator 27.3.1, SVG Export Plug-In . SVG Version: 6.00 Build 0)  -->
<svg version="1.1" id="Layer_1" xmlns="http://www.w3.org/2000/svg" xmlns:xlink="http://www.w3.org/1999/xlink" x="0px" y="0px"
	 viewBox="0 0 653 531" enable-background="new 0 0 653 531" xml:space="preserve">
<path fill="#3E8CD6" d="M326.5,0C213.58002,0,139.76001,0.01801,91.44,11h470.12C513.23999,0.01801,439.40997,0,326.5,0z
	 M43.85999,31c-4.8176,3.56732-9.11279,7.56183-12.92799,12h591.13c-3.81488-4.43817-8.11023-8.43268-12.92798-12H43.85999z
	 M20.15898,59c-2.584,4.94299-4.9232,10.19202-6.8848,16h626.45001c-1.96149-5.80762-4.30072-11.05701-6.88483-16H20.15898z
	 M9.58498,88c-1.65669,6.79272-3.0284,14.117-4.1602,22h642.15002c-1.13177-7.88269-2.50342-15.20697-4.16022-22H9.58498z
	 M4.29398,119c-1.2415,10.69598-2.0394,22.79297-2.6602,35.5h649.72998c-0.62073-12.70697-1.41858-24.80402-2.66022-35.5H4.29398z
	 M1.62897,376.5c0.62074,12.70697,1.41859,24.80402,2.6602,35.5h644.40997c1.24152-10.69598,2.03943-22.79297,2.66022-35.5H1.62897z
	 M5.41997,421c1.13181,7.88269,2.5034,15.20697,4.1602,22h633.82996c1.65668-6.79272,3.02838-14.117,4.16022-22H5.41997z
	 M13.26956,456c1.9615,5.80762,4.3007,11.05701,6.8848,16h612.67999c2.58398-4.94299,4.92322-10.19202,6.88483-16H13.26956z
	 M30.92757,488c3.8149,4.43817,8.1102,8.43268,12.92799,12h565.28003c4.81763-3.56732,9.11279-7.56183,12.92798-12H30.92757z
	 M91.43158,520c48.32001,10.98206,122.14999,11,235.06,11s186.73999-0.01794,235.06-11H91.43158z M190.74902,228.88086
	c1.38379,2.52637,2.07568,5.23779,2.07568,8.13477c0,2.89648-0.69189,5.59082-2.07568,8.07861
	c-1.38379,2.48975-3.40137,4.49512-6.05371,6.01855c-2.65381,1.52393-5.73779,2.28369-9.25098,2.28369h-22.76172v-32.87402h22.76172
	c3.51318,0,6.59717,0.76172,9.25098,2.28516C187.34766,224.33105,189.36523,226.35449,190.74902,228.88086z M651.58093,159.5
	H1.42096c-1.27246,29.66602-1.42188,64.21802-1.42188,106s0.14935,76.33398,1.42188,106h650.15997
	c1.27252-29.66602,1.42188-64.21802,1.42188-106S652.85339,189.16602,651.58093,159.5z M195.16602,347.5459l-28.91504-60.7168
	h-13.56836v60.7168h-40.03027V184.51758h64.57031c11.69189,0,21.7085,2.44238,30.04932,7.32422
	c8.34033,4.88281,14.68945,11.3125,19.04688,19.28809c4.35742,7.97754,6.53613,16.5874,6.53613,25.82959
	c0,10.21387-2.58398,18.95264-7.75049,26.22119c-5.16602,7.26758-11.42969,12.72949-18.78857,16.38086l35.14893,67.98438H195.16602z
	 M382.7998,290.2959c0,8.57324-1.60352,16.51172-4.80664,23.81641c-3.20703,7.30664-7.67969,13.56836-13.41797,18.78516
	c-5.74219,5.21875-12.375,9.18848-19.9043,11.90918c-7.5293,2.72168-15.50586,4.08105-23.92822,4.08105
	c-11.1084,0-21.41309-2.42188-30.91699-7.26758c-9.50488-4.8457-16.99609-11.72168-22.47559-20.63086
	c-5.47852-8.90625-8.21826-19.1377-8.21826-30.69336V184.51758h40.03027v104.88379c0,7.45508,1.92383,13.28906,5.77246,17.49902
	c3.84912,4.21289,9.1377,6.31738,15.86377,6.31738c4.33301,0,8.18115-0.93066,11.54443-2.79492
	c3.36328-1.8623,5.94336-4.58398,7.73633-8.16211s2.69141-7.86426,2.69141-12.85938V184.51758h40.0293V290.2959z
	 M540.34961,347.5459h-34.99902l-52.21777-81.96143v81.96143h-40.03027V184.51758h35.0127l52.2041,81.96094v-81.96094h40.03027
	V347.5459z"/>
</svg>
