<?xml version="1.0" encoding="utf-8"?>
<!-- Generator: Adobe Illustrator 27.3.1, SVG Export Plug-In . SVG Version: 6.00 Build 0)  -->
<svg version="1.1" id="Layer_1" xmlns="http://www.w3.org/2000/svg" xmlns:xlink="http://www.w3.org/1999/xlink" x="0px" y="0px"
	 viewBox="0 0 1242.00366 531" enable-background="new 0 0 1242.00366 531" xml:space="preserve">
<path fill="#FFFFFF" d="M91.44092,11C139.68903,0.03436,213.36383,0.00006,325.99976,0l0,0h590.00214l0,0
	c112.62604,0.00006,186.31085,0.03436,234.55902,11H916.00189h-0.50116h-589h-0.50098H91.44092z M915.99365,520h-0.50098h-589
	h-0.50116H91.4325c48.24817,10.9657,121.93292,10.99994,234.55902,11l0,0h590.00214l0,0
	c112.62598-0.00006,186.31079-0.0343,234.55884-11H915.99365z M326.50024,43h589h0.50116h295.06158
	c-3.81494-4.43817-8.11035-8.43268-12.92798-12H916.0014h-0.50098h-589h-0.50116H43.8609
	c-4.81757,3.56732-9.11279,7.56183-12.92798,12h295.06635H326.50024z M326.49976,75h589h0.50116h312.72418
	c-1.96143-5.80762-4.30078-11.05701-6.88477-16H916.00092H915.5h-589h-0.50116H20.15991
	c-2.58398,4.94299-4.92322,10.19202-6.88483,16h312.72375H326.49976z M326.49915,110h589h0.50116h320.57538
	c-1.13171-7.88269-2.50342-15.20697-4.16016-22H916.00031h-0.50079h-589h-0.50116H9.58588
	c-1.65668,6.79272-3.02838,14.117-4.16016,22h320.57263H326.49915z M326.49847,154.5h589h0.50116h324.36511
	c-0.62085-12.70697-1.4187-24.80402-2.66028-35.5H915.99963h-0.50061h-589h-0.50116H4.29492
	c-1.24152,10.69598-2.03943,22.79297-2.66022,35.5h324.36316H326.49847z M915.49493,376.5h-589h-0.50116H1.62988
	c0.62073,12.70697,1.41858,24.80402,2.66022,35.5h321.70367h0.50061h589h0.50116h321.70453
	c1.24158-10.69598,2.03943-22.79297,2.66028-35.5H915.99554H915.49493z M915.49426,421h-589h-0.50116H5.4209
	c1.13177,7.88269,2.50342,15.20697,4.16022,22H325.9931h0.50079h589h0.50116h316.41608c1.65662-6.79272,3.02832-14.117,4.16016-22
	H915.99506H915.49426z M915.49365,456h-589h-0.50116H13.27051c1.96149,5.80762,4.30066,11.05701,6.88477,16h305.83722h0.50092h589
	h0.50116h305.84064c2.58398-4.94299,4.92334-10.19202,6.88489-16H915.99457H915.49365z M915.49316,488h-589H325.992H30.92847
	c3.81494,4.43817,8.11023,8.43268,12.92804,12H325.992h0.50098h589h0.50116h282.14233c4.81763-3.56732,9.11279-7.56183,12.92798-12
	H915.99414H915.49316z M449.82513,242.62695c2.34863-2.59814,3.52246-5.7168,3.52246-9.35449
	c0-3.63721-1.1377-6.75439-3.41016-9.35205c-2.27539-2.59814-5.94531-3.89795-11.01465-3.89795h-24.93457v26.50049h24.93457
	C443.84271,246.52295,447.47748,245.22461,449.82513,242.62695z M441.04779,282.52832h-27.05957v28.5127h27.05957
	c5.06836,0,8.77734-1.41016,11.12598-4.23145c2.34766-2.82129,3.52246-6.2002,3.52246-10.13672
	c0-3.93457-1.15723-7.27734-3.4668-10.02344C449.91791,283.90234,446.19135,282.52832,441.04779,282.52832z M269.07513,289.34863
	h28.40039l-13.75293-43.49658L269.07513,289.34863z M817.23138,222.30762c-2.6543-1.52344-5.7373-2.28516-9.25098-2.28516h-22.76172
	v32.87402h22.76172c3.51367,0,6.59668-0.75977,9.25098-2.28369c2.65234-1.52344,4.66992-3.52881,6.05371-6.01855
	c1.38379-2.48779,2.0752-5.18213,2.0752-8.07861c0-2.89697-0.69141-5.6084-2.0752-8.13477S819.88373,223.83105,817.23138,222.30762z
	 M1242.00366,265.5c0,41.78198-0.14929,76.33398-1.42188,106H915.99615H915.495h-589h-0.49774H1.42188
	C0.14935,341.83398,0,307.28198,0,265.5s0.14941-76.33398,1.42188-106h324.57538h0.50116h589h0.49774h324.58563
	C1241.85425,189.16602,1242.00366,223.71802,1242.00366,265.5z M191.36224,184.01758h-40.03027V265.979l-52.2041-81.96143h-35.0127
	V347.0459h40.03027v-81.96143l52.21826,81.96143h34.99854V184.01758z M357.40912,347.0459L298.1474,184.01758h-30.97363
	l-59.2627,163.02832h41.93115l7.93896-24.26367h50.20605l7.60352,24.26367H357.40912z M495.72552,298.99414
	c0-9.98145-2.01172-17.59863-6.03711-22.84961c-4.02539-5.25195-8.72266-9.48047-14.08984-12.68506
	c4.1748-2.76025,8.2002-6.84326,12.07617-12.25244c3.87598-5.40723,5.81445-12.06396,5.81445-19.97168
	c0-9.39746-1.99316-17.6582-5.97656-24.78271c-3.98535-7.125-9.88672-12.64404-17.70703-16.56104
	c-7.82031-3.91553-17.24023-5.87402-28.26172-5.87402h-67.58594V347.0459h70.93848c7.07422,0,13.77637-1.06055,20.1084-3.18457
	c6.3291-2.12305,11.7666-5.2334,16.30957-9.33008c4.54199-4.09668,8.08008-9.125,10.61328-15.08691
	C494.45892,313.48535,495.72552,306.66797,495.72552,298.99414z M644.32904,184.01758h-40.0293v104.88379
	c0,4.99512-0.89844,9.28125-2.69141,12.85938c-1.79395,3.57812-4.37305,6.2998-7.73633,8.16211
	c-3.36328,1.86426-7.21191,2.79492-11.54492,2.79492c-6.72656,0-12.01465-2.10449-15.86328-6.31738
	c-3.84961-4.20996-5.77344-10.04395-5.77344-17.49902V184.01758h-40.0293V289.7959c0,11.55566,2.73926,21.78711,8.21777,30.69336
	c5.47949,8.90918,12.9707,15.78516,22.47559,20.63086c9.50391,4.8457,19.80859,7.26758,30.91699,7.26758
	c8.42285,0,16.39844-1.35938,23.92871-4.08105c7.52832-2.7207,14.16211-6.69043,19.90332-11.90918
	c5.73926-5.2168,10.21191-11.47852,13.41797-18.78516c3.2041-7.30469,4.80762-15.24316,4.80762-23.81641V184.01758z
	 M717.34564,323.67676c0-6.63477-2.34863-12.30078-7.04395-16.99609c-4.69727-4.69727-10.3623-7.04492-16.99609-7.04492
	c-6.63574,0-12.30078,2.34766-16.99609,7.04492c-4.69727,4.69531-7.04492,10.36133-7.04492,16.99609
	s2.34766,12.29883,7.04492,16.99609c4.69531,4.69531,10.36035,7.04395,16.99609,7.04395
	c6.63379,0,12.29883-2.34863,16.99609-7.04395C714.99701,335.97559,717.34564,330.31152,717.34564,323.67676z M874.00092,347.0459
	l-35.14844-67.98438c7.3584-3.65137,13.62207-9.11328,18.78809-16.38086c5.16602-7.26855,7.75098-16.00732,7.75098-26.22119
	c0-9.24219-2.17871-17.85205-6.53613-25.82959c-4.35742-7.97559-10.70703-14.40527-19.04785-19.28809
	c-8.34082-4.88184-18.35645-7.32422-30.04883-7.32422h-64.57031V347.0459h40.03027v-60.7168h13.56836l28.91504,60.7168H874.00092z
	 M1015.33685,184.01758h-40.0293v104.88379c0,4.99512-0.89844,9.28125-2.69141,12.85938
	c-1.79395,3.57812-4.37305,6.2998-7.73633,8.16211c-3.36328,1.86426-7.21191,2.79492-11.54492,2.79492
	c-6.72656,0-12.01465-2.10449-15.86328-6.31738c-3.84961-4.20996-5.77344-10.04395-5.77344-17.49902V184.01758h-40.0293V289.7959
	c0,11.55566,2.73926,21.78711,8.21777,30.69336c5.47949,8.90918,12.9707,15.78516,22.47559,20.63086
	c9.50391,4.8457,19.80859,7.26758,30.91699,7.26758c8.42285,0,16.39844-1.35938,23.92871-4.08105
	c7.52832-2.7207,14.16211-6.69043,19.90332-11.90918c5.73926-5.2168,10.21191-11.47852,13.41797-18.78516
	c3.2041-7.30469,4.80762-15.24316,4.80762-23.81641V184.01758z M1172.88672,184.01758h-40.03027V265.979l-52.2041-81.96143h-35.0127
	V347.0459h40.03027v-81.96143l52.21777,81.96143h34.99902V184.01758z"/>
</svg>
